<svg width="2000" height="1204" viewBox="0 0 2000 1204" fill="none" xmlns="http://www.w3.org/2000/svg">
<mask id="mask0" mask-type="alpha" maskUnits="userSpaceOnUse" x="4" y="0" width="1992" height="1196">
<rect x="4" width="1992" height="1196" fill="#C4C4C4"/>
</mask>
<g mask="url(#mask0)">
<g filter="url(#filter0_d)">
<path fill-rule="evenodd" clip-rule="evenodd" d="M1225.55 -751.386C1403.51 -708.792 1539.46 -571.207 1667.32 -429.977C1798.63 -284.921 1962.71 -138.807 1970.09 71.0471C1977.39 278.106 1809.54 437.374 1704.04 613.153C1609.76 770.247 1535.39 947.455 1388.22 1040.58C1236.26 1136.74 1058.03 1155.44 889.047 1128.87C717.593 1101.91 553.828 1027.34 434.925 890.683C315.483 753.402 249.997 568.337 232.983 374.833C216.196 183.916 266.086 -3.66838 340.716 -180.738C420.158 -369.222 510.618 -563.646 672.545 -668.075C839.715 -775.886 1041.65 -795.402 1225.55 -751.386Z" fill="url(#paint0_linear)"/>
</g>
<g opacity="0.9">
<g opacity="0.45" filter="url(#filter1_d)">
<path fill-rule="evenodd" clip-rule="evenodd" d="M1741.44 -244.048C1626.15 -398.814 1460.43 -520.354 1270.45 -555.739C1086.55 -589.992 905.234 -512.39 735.288 -431.328C575.814 -355.261 429.381 -255.161 332.053 -108.047C233.334 41.1687 176.618 216.841 188.726 394.631C200.779 571.597 282.957 734.55 398.595 868.841C512.57 1001.2 659.687 1107.41 831.283 1140.88C914.271 1157.07 995.537 1146.15 1076.52 1125.06C1117.01 1114.51 1157.4 1101.43 1197.89 1087.93C1204.95 1085.58 1212.01 1083.21 1219.08 1080.84C1252.53 1069.64 1286.07 1058.4 1319.76 1048.35C1365.46 1034.71 1413.54 1024.44 1461.68 1014.33C1463.91 1013.86 1466.14 1013.39 1468.37 1012.92C1514.3 1003.28 1560.19 993.645 1604.13 981.229C1696.27 955.19 1779.59 916.979 1836.35 841.109C1893.92 764.166 1912.51 672.264 1914.57 575.508C1916.1 503.529 1908.49 429.023 1901.05 356.083C1898.48 330.923 1895.93 305.949 1893.78 281.329C1877.48 94.6213 1852.87 -94.4568 1741.44 -244.048ZM1271.05 -558.934C1462.01 -523.367 1628.38 -401.255 1744.04 -245.99C1856.1 -95.572 1880.72 94.3942 1897.01 281.046C1899.15 305.559 1901.7 330.465 1904.26 355.585C1911.72 428.58 1919.36 503.38 1917.82 575.577C1915.75 672.673 1897.1 765.351 1838.96 843.056C1781.55 919.776 1697.41 958.246 1605.01 984.356C1560.96 996.804 1514.98 1006.46 1469.08 1016.09C1466.83 1016.56 1464.59 1017.04 1462.35 1017.51C1414.2 1027.62 1366.24 1037.87 1320.69 1051.46C1287.06 1061.5 1253.58 1072.71 1220.14 1083.92C1213.06 1086.29 1205.99 1088.66 1198.92 1091.02C1158.42 1104.52 1117.94 1117.63 1077.33 1128.2C996.127 1149.36 914.323 1160.39 830.661 1144.07C658.133 1110.42 510.417 1003.68 396.132 870.962C280.164 736.286 197.596 572.692 185.484 394.852C173.318 216.226 230.305 39.8568 329.342 -109.841C427.127 -257.645 574.149 -358.068 733.888 -434.261C903.732 -515.274 1085.97 -593.407 1271.05 -558.934Z" fill="url(#paint1_linear)"/>
</g>
<g opacity="0.6" filter="url(#filter2_d)">
<path fill-rule="evenodd" clip-rule="evenodd" d="M1717.41 -224.324C1614.72 -384.369 1460.23 -515.151 1276.05 -562.948C1097.83 -609.196 914.39 -545.459 741.523 -477.359C579.441 -413.506 428.655 -325.167 322.92 -187.319C215.617 -47.4268 147.815 121.312 147.488 296.809C147.162 471.478 216.691 637.252 321.136 777.215C424.085 915.172 561.352 1029.6 727.594 1074.25C807.914 1095.83 888.449 1090.7 969.511 1075.53C1010.04 1067.94 1050.66 1057.85 1091.44 1047.36C1098.55 1045.52 1105.66 1043.68 1112.78 1041.84C1146.47 1033.11 1180.27 1024.35 1214.14 1016.77C1260.1 1006.48 1308.18 999.674 1356.24 993.032C1358.46 992.725 1360.69 992.418 1362.91 992.111C1408.79 985.778 1454.57 979.459 1498.62 970.27C1591.01 951 1675.33 919.196 1736.18 848.722C1797.91 777.216 1822.49 688.326 1831.17 593.371C1837.63 522.719 1835.27 448.98 1832.97 376.708C1832.17 351.757 1831.38 326.981 1830.96 302.567C1827.78 117.691 1816.57 -69.7567 1717.41 -224.324ZM1277.43 -568.272C1463.24 -520.052 1618.79 -388.225 1722.04 -227.294C1822.14 -71.2587 1833.28 117.691 1836.46 302.473C1836.88 326.705 1837.66 351.365 1838.46 376.247C1840.77 448.612 1843.14 522.852 1836.65 593.871C1827.91 689.399 1803.13 779.59 1740.34 852.316C1678.32 924.151 1592.57 956.293 1499.75 975.654C1455.5 984.883 1409.55 991.226 1363.72 997.551C1361.48 997.861 1359.23 998.17 1356.99 998.48C1308.9 1005.13 1261.05 1011.91 1215.34 1022.14C1181.57 1029.7 1147.87 1038.43 1114.18 1047.16C1107.06 1049 1099.93 1050.85 1092.81 1052.68C1052.02 1063.18 1011.25 1073.31 970.523 1080.93C889.067 1096.18 807.61 1101.44 726.167 1079.57C558.374 1034.5 420.158 919.105 316.728 780.504C211.77 639.854 141.659 472.95 141.988 296.799C142.318 119.883 210.658 -49.9993 318.556 -190.666C425.144 -329.626 576.961 -418.441 739.507 -482.476C912.194 -550.506 1097.25 -615.028 1277.43 -568.272Z" fill="url(#paint2_linear)"/>
</g>
</g>
<g filter="url(#filter3_d)">
<path fill-rule="evenodd" clip-rule="evenodd" d="M1164.18 -411.032C1295.26 -345.913 1409.29 -291.522 1486.97 -167.621C1566.75 -40.3633 1624.2 242.886 1598.62 390.641C1573.38 536.428 1433.04 571.182 1325.36 672.711C1229.13 763.447 1150.18 834.869 1022.64 870.487C890.959 907.262 750.524 884.818 623.991 832.655C495.603 779.728 380.253 695.144 308.803 576.21C237.029 456.737 214.049 314.696 229.758 176.422C245.257 39.9967 311.751 -80.8317 395.784 -189.405C485.234 -304.976 584.078 -422.495 724.696 -463.053C869.868 -504.925 1028.73 -478.326 1164.18 -411.032Z" fill="url(#paint3_linear)"/>
</g>
<g opacity="0.75" filter="url(#filter4_d)">
<path fill-rule="evenodd" clip-rule="evenodd" d="M1665.82 -194.195C1575.91 -358.527 1433.11 -497.588 1255.51 -557.164C1083.75 -614.783 899.219 -564.826 724.401 -509.694C560.626 -458.045 406.404 -381.58 293.072 -253.443C177.997 -123.336 99.7965 37.7902 87.412 210.139C75.087 381.66 131.979 549.297 225.011 694.032C316.715 836.703 443.712 958.511 603.888 1013.76C681.201 1040.43 760.598 1040.93 841.319 1031.59C881.681 1026.92 922.309 1019.79 963.149 1012.26C970.269 1010.95 977.395 1009.63 984.528 1008.3C1018.27 1002.03 1052.16 995.737 1086.02 990.603C1132.01 983.631 1179.83 980.235 1227.57 977.004C1229.77 976.855 1231.98 976.706 1234.18 976.558C1279.77 973.48 1325.22 970.412 1369.16 964.405C1461.29 951.81 1546.14 926.367 1610.6 861.479C1676.02 795.611 1706.26 710.114 1721.32 617.405C1732.53 548.412 1735.29 475.806 1737.99 404.56C1738.93 379.941 1739.86 355.485 1741.13 331.396C1750.72 149.258 1752.57 -35.6239 1665.82 -194.195ZM1257.98 -564.512C1437.82 -504.181 1582 -363.548 1672.62 -197.915C1760.55 -37.1873 1758.46 149.8 1748.87 331.804C1747.61 355.636 1746.69 379.929 1745.76 404.45C1743.05 475.828 1740.26 549.141 1728.97 618.647C1713.78 712.156 1683.12 799.462 1616.09 866.941C1549.86 933.624 1462.96 959.404 1370.21 972.084C1325.99 978.128 1280.3 981.212 1234.79 984.285C1232.55 984.435 1230.32 984.586 1228.09 984.737C1180.31 987.969 1132.81 991.349 1087.18 998.266C1053.45 1003.38 1019.72 1009.65 985.976 1015.92C978.836 1017.24 971.695 1018.57 964.554 1019.89C923.697 1027.41 882.849 1034.58 842.21 1039.29C760.928 1048.7 680.221 1048.29 601.361 1021.09C439.045 965.1 310.808 841.845 218.492 698.223C124.806 552.47 67.2072 383.187 79.6819 209.583C92.2097 35.241 171.28 -127.44 287.267 -258.578C401.907 -388.194 557.625 -465.225 722.07 -517.085C896.629 -572.136 1083.51 -623.038 1257.98 -564.512Z" fill="url(#paint4_linear)"/>
</g>
<g opacity="0.9" filter="url(#filter5_d)">
<path fill-rule="evenodd" clip-rule="evenodd" d="M1622.26 -188.944C1545.22 -356.571 1414.51 -502.928 1244.23 -573.602C1079.62 -641.921 895.017 -605.582 719.204 -563.356C554.638 -523.831 397.89 -459.284 277.791 -341.237C155.778 -221.308 67.9048 -68.4106 43.9 99.9758C20.0125 267.538 64.3508 436.096 145.819 584.705C226.13 731.201 342.505 859.521 495.959 924.744C569.951 956.193 647.824 962.151 727.791 958.511C767.777 956.69 808.202 952.476 848.894 947.881C855.982 947.08 863.079 946.268 870.183 945.455C903.816 941.606 937.606 937.739 971.296 935.016C1017.08 931.314 1064.4 931.26 1111.58 931.364C1113.76 931.369 1115.93 931.374 1118.11 931.379C1163.18 931.486 1208.06 931.591 1251.66 928.706C1343.07 922.655 1427.98 903.488 1495.56 844.343C1564.2 784.273 1599.75 702.518 1620.92 612.476C1636.67 545.455 1644.37 474.328 1651.94 404.45C1654.56 380.283 1657.16 356.265 1660.07 332.618C1682.05 154.089 1696.53 -27.3351 1622.26 -188.944ZM1248.06 -582.838C1421.17 -510.99 1553.51 -362.487 1631.35 -193.12C1706.95 -28.6291 1691.95 155.482 1669.99 333.84C1667.12 357.158 1664.54 380.967 1661.94 405.009C1654.36 475.056 1646.56 547.09 1630.65 614.764C1609.24 705.824 1572.99 789.869 1502.15 851.868C1432.11 913.165 1344.53 932.58 1252.32 938.684C1208.36 941.593 1163.17 941.486 1118.19 941.38C1115.98 941.374 1113.77 941.369 1111.56 941.364C1064.33 941.26 1017.41 941.32 972.102 944.983C938.593 947.692 905.001 951.536 871.372 955.385C864.255 956.199 857.136 957.014 850.016 957.818C809.302 962.416 768.591 966.664 728.246 968.5C647.551 972.174 567.984 966.223 492.047 933.947C335.905 867.581 218.063 737.289 137.051 589.512C54.8315 439.534 9.73233 268.795 34 98.5645C58.3689 -72.3753 147.503 -227.195 270.782 -348.369C392.697 -468.202 551.421 -533.343 716.868 -573.08C892.341 -615.224 1080.06 -652.569 1248.06 -582.838Z" fill="url(#paint5_linear)"/>
</g>
</g>
<defs>
<filter id="filter0_d" x="19.875" y="-967.382" width="2150.24" height="2324.58" filterUnits="userSpaceOnUse" color-interpolation-filters="sRGB">
<feFlood flood-opacity="0" result="BackgroundImageFix"/>
<feColorMatrix in="SourceAlpha" type="matrix" values="0 0 0 0 0 0 0 0 0 0 0 0 0 0 0 0 0 0 127 0"/>
<feOffset/>
<feGaussianBlur stdDeviation="36"/>
<feColorMatrix type="matrix" values="0 0 0 0 0 0 0 0 0 0 0 0 0 0 0 0 0 0 0.08 0"/>
<feBlend mode="normal" in2="BackgroundImageFix" result="effect1_dropShadow"/>
<feBlend mode="normal" in="SourceGraphic" in2="effect1_dropShadow" result="shape"/>
</filter>
<filter id="filter1_d" x="-205.453" y="-957.698" width="2601.66" height="2599.75" filterUnits="userSpaceOnUse" color-interpolation-filters="sRGB">
<feFlood flood-opacity="0" result="BackgroundImageFix"/>
<feColorMatrix in="SourceAlpha" type="matrix" values="0 0 0 0 0 0 0 0 0 0 0 0 0 0 0 0 0 0 127 0"/>
<feOffset/>
<feGaussianBlur stdDeviation="36"/>
<feColorMatrix type="matrix" values="0 0 0 0 0 0 0 0 0 0 0 0 0 0 0 0 0 0 0.08 0"/>
<feBlend mode="normal" in2="BackgroundImageFix" result="effect1_dropShadow"/>
<feBlend mode="normal" in="SourceGraphic" in2="effect1_dropShadow" result="shape"/>
</filter>
<filter id="filter2_d" x="-233.135" y="-966.144" width="2550.67" height="2547.34" filterUnits="userSpaceOnUse" color-interpolation-filters="sRGB">
<feFlood flood-opacity="0" result="BackgroundImageFix"/>
<feColorMatrix in="SourceAlpha" type="matrix" values="0 0 0 0 0 0 0 0 0 0 0 0 0 0 0 0 0 0 127 0"/>
<feOffset/>
<feGaussianBlur stdDeviation="36"/>
<feColorMatrix type="matrix" values="0 0 0 0 0 0 0 0 0 0 0 0 0 0 0 0 0 0 0.08 0"/>
<feBlend mode="normal" in2="BackgroundImageFix" result="effect1_dropShadow"/>
<feBlend mode="normal" in="SourceGraphic" in2="effect1_dropShadow" result="shape"/>
</filter>
<filter id="filter3_d" x="-34.3916" y="-734.057" width="1927.33" height="1919.41" filterUnits="userSpaceOnUse" color-interpolation-filters="sRGB">
<feFlood flood-opacity="0" result="BackgroundImageFix"/>
<feColorMatrix in="SourceAlpha" type="matrix" values="0 0 0 0 0 0 0 0 0 0 0 0 0 0 0 0 0 0 127 0"/>
<feOffset/>
<feGaussianBlur stdDeviation="32"/>
<feColorMatrix type="matrix" values="0 0 0 0 0 0 0 0 0 0 0 0 0 0 0 0 0 0 0.08 0"/>
<feBlend mode="normal" in2="BackgroundImageFix" result="effect1_dropShadow"/>
<feBlend mode="normal" in="SourceGraphic" in2="effect1_dropShadow" result="shape"/>
</filter>
<filter id="filter4_d" x="-278.463" y="-959.843" width="2488.63" height="2483.91" filterUnits="userSpaceOnUse" color-interpolation-filters="sRGB">
<feFlood flood-opacity="0" result="BackgroundImageFix"/>
<feColorMatrix in="SourceAlpha" type="matrix" values="0 0 0 0 0 0 0 0 0 0 0 0 0 0 0 0 0 0 127 0"/>
<feOffset/>
<feGaussianBlur stdDeviation="36"/>
<feColorMatrix type="matrix" values="0 0 0 0 0 0 0 0 0 0 0 0 0 0 0 0 0 0 0.08 0"/>
<feBlend mode="normal" in2="BackgroundImageFix" result="effect1_dropShadow"/>
<feBlend mode="normal" in="SourceGraphic" in2="effect1_dropShadow" result="shape"/>
</filter>
<filter id="filter5_d" x="-306.122" y="-974.032" width="2416.15" height="2410.05" filterUnits="userSpaceOnUse" color-interpolation-filters="sRGB">
<feFlood flood-opacity="0" result="BackgroundImageFix"/>
<feColorMatrix in="SourceAlpha" type="matrix" values="0 0 0 0 0 0 0 0 0 0 0 0 0 0 0 0 0 0 127 0"/>
<feOffset/>
<feGaussianBlur stdDeviation="36"/>
<feColorMatrix type="matrix" values="0 0 0 0 0 0 0 0 0 0 0 0 0 0 0 0 0 0 0.08 0"/>
<feBlend mode="normal" in2="BackgroundImageFix" result="effect1_dropShadow"/>
<feBlend mode="normal" in="SourceGraphic" in2="effect1_dropShadow" result="shape"/>
</filter>
<linearGradient id="paint0_linear" x1="1263.39" y1="-745.991" x2="926.604" y2="1135.81" gradientUnits="userSpaceOnUse">
<stop stop-color="#FFE194"/>
<stop offset="1" stop-color="#DD3A3A"/>
</linearGradient>
<linearGradient id="paint1_linear" x1="1768.61" y1="-215.74" x2="422.136" y2="900.093" gradientUnits="userSpaceOnUse">
<stop stop-color="#E24040"/>
<stop offset="1" stop-color="#E2A140"/>
</linearGradient>
<linearGradient id="paint2_linear" x1="1743.17" y1="-195.217" x2="341.232" y2="810.273" gradientUnits="userSpaceOnUse">
<stop stop-color="#E24040"/>
<stop offset="1" stop-color="#E2A140"/>
</linearGradient>
<linearGradient id="paint3_linear" x1="1192.59" y1="-399.74" x2="651.96" y2="844.965" gradientUnits="userSpaceOnUse">
<stop stop-color="#EC5555"/>
<stop offset="1" stop-color="#D92C2C"/>
</linearGradient>
<linearGradient id="paint4_linear" x1="1690.18" y1="-164.344" x2="241.529" y2="728.568" gradientUnits="userSpaceOnUse">
<stop stop-color="#E24040"/>
<stop offset="1" stop-color="#E2A140"/>
</linearGradient>
<linearGradient id="paint5_linear" x1="1645.24" y1="-158.398" x2="158.659" y2="620.38" gradientUnits="userSpaceOnUse">
<stop stop-color="#E24040"/>
<stop offset="1" stop-color="#E2A140"/>
</linearGradient>
</defs>
</svg>
