<svg width="391" height="780" viewBox="0 0 391 780" fill="none" xmlns="http://www.w3.org/2000/svg">
<path fill-rule="evenodd" clip-rule="evenodd" d="M288.157 712.828C289.828 705.064 282.184 702.439 277.366 700.712C273.914 698.477 261.125 690.739 251.229 681.187C243.131 673.37 237.618 663.352 235.324 662.397C235.324 662.397 232.962 661.03 232.717 660.014C231.279 654.062 232.478 648.515 232.717 644.906C237.323 643.699 241.015 642.193 243.776 640.088C244.581 640.356 245.788 640.698 246.148 639.523C248.643 622.91 249.72 606.493 251.75 589.867C259.434 526.542 260.301 452.563 247.081 394.725C246.942 391.858 247.193 389.269 247.449 386.806C249.236 386.613 250.317 384.886 251.777 383.854C254.042 382.057 256.725 380.677 256.614 377.536C257.152 377.129 257.089 376.901 256.824 376.383C258.552 368.967 250.844 361.152 248.665 355.038C252.627 316.359 247.236 279.809 250.243 241.121C254.042 239.534 251.488 229.618 251.229 225.528C249.124 199.179 235.399 173.127 210.684 164.519C209.271 164.234 207.147 162.622 205.978 163.704C203.719 162.811 200.713 164.572 198.964 162.544L198.981 162.531C197.509 160.493 196.849 157.903 196.365 155.454C196.446 156.144 196.581 156.829 196.748 157.498C192.487 145.514 191.413 142.309 177.697 141.745C171.518 141.662 163.373 141.847 159.77 147.729C158.294 150.463 158.745 153.602 157.829 156.479C156.147 161.76 148.887 159.208 145.075 161.951C114.57 171.715 89.5487 191.646 81.3242 223.636C79.6428 227.491 77.7358 231.329 76.3301 235.308C76.1125 235.898 75.5141 237.897 76.9513 238.817L77.6465 239.262C68.4903 281.971 67.8828 317.96 98.6441 346.433C100.953 358.667 95.0141 375.375 97.2968 387.254C95.9961 389.096 97.6455 390.579 99.3084 390.698C99.4687 390.787 100.117 391.07 100.293 391.15C97.6469 428.434 108.758 478.682 113.655 498.514C114.322 510.422 110.25 520.203 101.872 526.693C92.6166 532.382 74.3181 558.077 77.7104 585.03C73.746 585.806 69.8103 586.231 66.0069 587.718C49.3651 584.787 49.5301 616.805 48.4697 628.062C46.6738 646.912 45.5576 674.232 63.5007 686.298C68.2276 689.72 77.8122 693.727 82.7238 688.249C84.3332 686.32 84.7363 684.456 84.1031 682.485C92.2134 671.05 90.0278 656.092 90.7728 642.679C93.1246 642.538 95.5852 643.639 97.8602 643.238C100.195 641.184 91.6769 641.744 90.7934 641.624C90.8839 639.555 91.0506 637.377 91.2658 635.292C92.6019 635.559 94.3135 636.199 95.5983 636.248C96.3587 636.433 96.8962 635.388 96.4371 634.846C95.4344 633.892 92.8779 634.04 91.4392 633.904C91.6821 632.159 91.9792 630.323 92.3093 628.635C94.0693 628.572 95.8869 629.691 97.5533 629.462C96.292 628.622 93.9245 628.878 92.387 628.323C93.3868 622.886 95.424 617.724 97.318 612.639C101.965 614.552 105.974 614.627 110.511 614.054C112.367 614.339 113.272 613.96 113.572 611.643L113.453 611.497C117.049 590.023 128.653 569.552 150.205 546.337C154.463 541.582 159.273 535.983 162.479 529.724C168.92 516.697 170.02 502.323 174.983 488.795C179.616 475.197 185.952 462.19 191.9 449.3C192.772 455.906 193.944 462.683 195.162 469.161C200.523 492.116 200.004 516.608 196.058 539.69C190.221 572.019 193.035 604.501 191.736 637.059C191.754 638.937 191.987 640.643 191.711 642.598C191.675 642.748 191.746 642.926 191.924 642.922L192.261 642.931C195.067 644.981 198.942 645.352 202.239 646.464C203.623 647.558 203.233 649.29 203.36 650.641C203.722 656.465 204.186 662.311 203.611 668.313C201.067 673.178 197.908 672.173 197.261 679.03C196.696 686.859 195.695 695.184 199.515 702.155L198.07 702.404C195.925 706.896 197.234 709.813 202.276 711.713C227.164 721.452 262.186 730.294 288.157 722.943C288.629 723.41 289.316 722.925 289.852 722.191C290.368 721.485 290.746 720.55 290.662 720.006C290.218 717.622 290.828 713.269 288.157 712.828Z" fill="#e03b3b"/>
<path fill-rule="evenodd" clip-rule="evenodd" d="M289.224 720.626C266.86 730.649 226.249 718.002 204.274 710.685C198.349 708.552 196.375 708.134 198.035 701.317C201.141 707.299 207.822 708.744 214.222 709.944C235.903 714.876 258.006 723.983 281.192 719.539C284.595 719.005 287.963 717.166 288.953 713.772C289.564 715.21 289.186 717.158 289.431 718.74C289.476 719.37 289.49 720.052 289.224 720.626M198.772 683.346C199.175 679.328 199.821 675.084 202.113 671.533C201.864 677.276 205.319 687.036 212.89 683.784C215.035 682.65 216.237 680.366 217.616 678.532C222.202 672.497 228.083 667.258 234.725 663.45C238.421 664.084 240.01 670.828 242.391 673.651C239.736 674.832 234.925 677.522 234.438 680.305C237.753 679.192 240.805 677.12 244.282 676.391C245.396 677.925 246.576 679.413 247.816 680.85C246.196 681.562 239.665 684.857 239.708 686.501C243.239 685.929 246.661 684.203 250.212 683.494C251.791 685.057 253.228 686.74 254.8 688.308C252.425 689.284 249.917 690.374 248.621 692.649C248.559 692.752 248.711 692.867 248.794 692.768C250.573 690.628 253.634 690.235 256.287 689.753C260.357 693.578 264.915 696.952 270.016 699.477C275.12 702.262 282.876 702.899 284.907 708.94C286.531 714.98 281.466 715.625 276.792 716.052C272.063 716.723 267.302 716.825 262.604 716.433C247.92 715.822 234.039 711.508 220.162 707.739C203.196 704.622 197.691 702.099 198.772 683.346M231.157 661.515C224.657 666.312 218.311 671.658 213.796 678.35C210.809 683.794 206.833 680.48 205.845 676.119C205.045 666.381 205.733 657.973 204.796 648.177C213.785 649.4 223.018 648.646 231.798 646.482C230.741 650.855 230.257 652.515 230.223 657.001C230.281 658.479 230.259 660.284 231.157 661.515M198.712 376.543C197.848 376.858 197.479 375.483 198.333 375.172C198.92 374.958 199.514 374.767 200.11 374.587C200.184 374.428 200.317 374.291 200.522 374.216C207.519 371.672 215.335 371.92 222.643 372.528C226.571 372.855 230.491 373.294 234.372 373.984C238.088 374.644 241.775 375.455 245.492 376.103C246.251 376.199 247.01 376.29 247.768 376.375C248.671 376.476 248.678 377.9 247.768 377.797C247.601 377.778 247.434 377.756 247.267 377.737C247.156 377.776 247.033 377.794 246.895 377.772C246.316 377.681 245.739 377.584 245.162 377.483C242.625 377.159 240.094 376.786 237.563 376.416C230.906 375.442 224.227 374.469 217.495 374.217C211.168 373.979 204.707 374.36 198.712 376.543M246.641 241.517C245.095 262.792 245.494 281.795 245.826 303.102C246.019 317.434 246.109 331.771 245.61 346.098C232.968 313.49 236.837 278.107 235.042 243.833C238.778 242.591 242.791 242.048 246.641 241.517M182.116 398.812C183.298 401.066 185.284 402.879 187.637 404.012C187.347 404.58 187.248 405.22 187.217 405.82C182.978 406.685 184.17 408.693 181.306 409.65C179.432 410.167 177.629 410.387 176.01 411.52C170.497 416.644 169.13 416.267 163.214 411.759C163.295 411.352 155.244 403.504 152.75 399.117C150.672 395.458 148.496 391.772 145.312 388.942C129.716 373.006 113.101 357.965 98.0038 341.588C67.7479 311.499 73.5211 277.382 80.4702 239.799C91.6866 241.136 102.965 243.821 113.066 248.751C109.503 265.339 109.275 280.375 107.741 297.208C107.278 299.289 107.8 303.297 110.755 302.372C137.912 323.89 141.068 368.109 176.705 380.896C191.23 386.788 185.101 391.571 189.9 402.696C187.259 402.213 184.904 400.004 183.768 397.89C183.206 396.84 181.567 397.764 182.116 398.812M115.078 385.442C114.204 385.544 113.328 385.619 112.451 385.691C112.349 385.773 112.223 385.833 112.068 385.852C110.702 386.022 109.309 386.245 107.928 386.547C105.879 387.271 103.809 387.933 101.748 388.622C101.568 388.711 101.388 388.801 101.211 388.895C101.041 388.985 100.876 388.999 100.728 388.966C100.668 388.986 100.607 389.006 100.547 389.026C100.531 389.031 100.516 389.037 100.501 389.042C100.446 389.04 100.391 389.039 100.335 389.036C100.254 389.033 100.115 389.026 99.9498 389.016C99.9463 388.953 99.9475 388.891 99.9456 388.829C99.3639 388.846 98.8427 388.12 99.3901 387.641C101.397 385.885 104.092 385.243 106.669 384.855C109.458 384.435 112.279 384.347 115.078 384.02C115.988 383.914 115.978 385.337 115.078 385.442M89.4541 627.144C86.9559 626.953 76.271 626.585 74.9888 628.258C76.4328 628.868 78.4179 628.531 79.9711 628.6C82.9875 628.723 85.9965 628.988 88.9817 629.41C88.7582 630.572 88.5564 631.731 88.3903 632.894C85.379 633.181 79.5151 633.311 77.6036 635.414C81.0137 635.957 84.5642 635.468 87.9864 636.146C87.8201 637.739 87.699 639.334 87.609 640.929C86.2456 641.074 78.2282 642.398 78.2353 643.657C81.2369 644.055 84.4169 643.531 87.476 643.828C86.8132 653.386 89.0601 682.252 75.9694 684.017C64.5248 683.415 59.5043 664.905 57.949 656.024C54.5004 635.333 55.092 613.272 61.9269 593.328C64.3681 587.782 71.0133 586.82 76.6323 586.533C76.8458 587.471 77.0571 588.393 77.2946 589.322C74.858 594.835 74.0816 601.043 74.0149 607.008C74.5302 615.583 85.1318 621.959 92.8312 616.294C91.392 619.802 90.2808 623.452 89.4541 627.144M74.3097 688.831C51.6411 683.968 47.922 657.769 49.4801 638.504C50.7505 625.094 49.2237 596.822 61.6275 588.943C45.597 603.548 46.9889 702.974 82.5147 685.62C81.6288 688.421 77.0738 689.229 74.3097 688.831M78.7525 595.355C78.7928 595.009 78.8377 594.665 78.8852 594.319C81.4002 601.138 85.7083 607.618 92.1231 611.566C89.6672 614.624 84.8842 615.534 81.6567 613.031C76.0282 608.819 78.3749 601.199 78.7525 595.355M156.021 159.744C155.976 159.823 155.928 159.901 155.881 159.977C155.567 159.998 155.252 160.026 154.931 160.062C155.295 159.953 155.658 159.851 156.021 159.744M291.426 716.476C291.364 714.78 291.34 712.589 289.35 711.987C290.252 704.678 284.172 700.517 277.789 698.492C272.346 695.169 266.173 692.847 261.172 688.841C263.494 688.406 265.817 687.88 267.881 686.871C269.439 686.111 268.688 683.578 267 683.812C264.01 684.206 261.324 685.723 258.514 686.778C256.918 685.469 255.372 684.103 253.912 682.657C255.731 682.306 258.044 682.435 259.103 680.633C259.433 680.069 259.286 679.485 258.887 679.05C257.044 677.188 253.391 679.047 251.102 679.59C250.003 678.325 248.941 677.035 247.898 675.729C249.627 675.57 254.125 675.886 253.244 673.037C251.556 670.81 247.925 672.146 245.483 672.605C242.386 668.804 241.389 662.974 236.549 660.883C236.375 659.961 235.169 660.032 234.364 660.306C233.179 654.659 233.269 651.789 233.616 646.001C237.209 645.008 240.774 643.705 243.761 641.567C245.134 641.97 246.799 641.505 247.084 639.896C249.568 623.414 250.672 606.729 252.693 590.188C260.062 529.274 261.668 454.924 248.026 394.744C247.92 392.464 248.081 390.182 248.311 387.919C249.938 387.485 250.907 385.899 252.254 384.982C254.757 382.946 257.303 381.806 257.533 378.253C258.039 377.772 258.098 377.045 257.821 376.414C258.469 372.766 257.514 369.145 255.569 365.993C253.437 362.402 251.423 358.778 249.644 355.01C253.534 317.026 248.257 280.214 251.142 242.041C254.842 240.086 252.52 229.221 252.176 225.6C250.014 201.816 238.888 175.555 215.232 165.662C213.572 164.264 211.254 163.79 209.225 163.02C207.855 162.347 205.625 161.764 204.687 163.33C203.692 162.868 200.488 162.515 199.391 161.714C199.187 161.564 199.056 161.401 199.025 161.218C198.945 161.221 198.85 161.204 198.747 161.183C197.736 159.756 196.772 149.818 195.525 150.527C194.164 153.94 195.107 157.796 196.408 161.242C197.306 164.29 198.536 172.13 203.305 170.125C204.127 169.718 203.618 168.658 202.882 168.573C200.621 167.928 200.118 164.612 199.244 162.669C200.279 163.527 204.996 164.814 205.511 165.086C215.742 188.522 153.883 187.292 149.02 171.135C145.552 165.553 148.545 162.529 154.727 161.633C150.183 166.672 155.935 167.791 158.122 162.849C160.215 159.31 161.167 155.011 160.452 150.939C160.82 149.51 161.132 147.6 158.989 147.984C158.916 147.794 158.799 147.943 158.845 148.079C158.063 149.321 158.607 151.105 158.329 152.539C158.094 154.886 157.427 157.185 156.294 159.261C154.192 159.661 152.1 160.09 150.017 160.56C148.768 158.026 140.665 163.079 138.489 163.674C109.589 172.194 87.6119 194.886 79.9412 223.507C78.2289 227.318 76.381 231.148 74.9798 235.078C74.3528 236.78 74.3528 238.891 76.0746 239.993C67.6841 278.406 65.637 318.427 97.3349 347.238C98.0543 350.357 97.5748 353.666 97.5534 356.842C97.761 362.489 94.0331 378.837 95.8114 387.261C95.6184 387.629 95.4818 388.024 95.4284 388.445C95.1795 390.403 96.7756 391.664 98.5366 391.985C98.5901 391.995 98.6452 392.004 98.6995 392.014C98.7394 392.033 98.7782 392.055 98.8192 392.073C96.7172 424.188 104.6 467.886 112.24 498.868C112.805 509.517 109.587 519.203 100.926 525.922C84.458 538.209 77.5209 558.717 75.5949 578.261C75.3218 580.264 75.5902 582.302 76.0416 584.269C72.4719 584.933 69.1307 585.364 65.6655 586.67C46.5547 583.016 47.9181 623.992 46.4552 636.151C45.3103 654.126 46.0251 675.672 62.5757 687.442C68.1401 691.396 77.9627 695.193 83.3848 689.206C84.9187 687.374 85.7549 685.231 85.1515 682.889C92.9245 671.529 91.0887 657.01 91.6706 644.084C93.7059 644.155 95.924 645.06 97.9287 644.562C99.4723 644.155 99.6694 642.178 98.3633 641.391C96.4774 640.325 93.9148 640.73 91.8059 640.659C91.8703 639.422 91.9629 638.185 92.0817 636.947C94.0835 637.436 96.9523 638.609 97.5484 635.817C97.7885 633.274 94.5703 633.079 92.5661 632.97C92.7063 632.01 92.863 631.055 93.0411 630.102C94.5753 630.257 96.1947 631.233 97.703 630.766C98.5578 630.43 98.8546 629.567 98.23 628.868C97.0689 627.732 95.0833 627.96 93.547 627.607C94.4801 623.044 96.1665 618.681 97.7909 614.318C100.731 615.337 103.916 616.01 107.053 615.754C108.68 615.413 110.456 615.315 112.1 615.536C113.928 615.052 114.351 613.102 114.591 611.509C114.555 611.452 114.519 611.398 114.479 611.348C118.704 586.794 133.861 565.581 150.855 547.305C155.536 542.077 160.127 536.64 163.307 530.43C169.767 517.452 170.926 502.849 175.868 489.366C180.031 477.122 185.595 465.381 191.05 453.622C193.238 469.109 197.322 484.341 197.791 500.046C198.503 519.914 194.116 539.494 192.245 559.203C188.88 585.144 191.936 611.246 190.312 637.206C190.324 639.043 190.561 640.773 190.3 642.61C190.155 643.626 190.887 644.264 191.656 644.285C194.482 646.136 198.033 646.793 201.281 647.584C202.182 648.272 201.792 649.964 201.951 651C202.3 656.818 202.761 661.209 202.193 667.076C199.016 671.765 196.727 671.016 195.843 678.143C195.356 685.584 194.285 693.63 197.543 700.384C196.085 700.715 195.532 705.156 195.75 706.331C196.121 709.646 199.049 710.694 201.88 711.838C222.568 719.574 266.525 732.309 287.782 723.551C289.305 724.411 291.003 722.726 291.494 721.369C292.145 719.717 291.546 718.117 291.426 716.476" fill="#FFE194"/>
<path fill-rule="evenodd" clip-rule="evenodd" d="M227.162 76.7546C227.082 73.9205 222.952 72.7437 221.758 75.5506C221.684 75.6257 221.604 75.698 221.528 75.7627C221.902 75.443 221.121 75.972 220.994 76.0374C220.885 76.0934 220.774 76.1438 220.663 76.196C219.895 69.016 217.289 61.2757 210.556 57.6718C201.165 53.1268 190.313 52.2397 180.01 52.6912C174.791 53.0003 168.764 53.8331 164.127 51.1981C162.682 50.3771 161.524 49.0846 159.891 48.5772C154.737 47.1857 152.399 52.4677 153.101 56.8114C150.903 56.8287 148.722 58.0434 147.773 60.0433C147.216 61.2269 147.225 62.5042 146.745 63.692C145.271 66.7044 143.162 68.8698 144.354 72.5221C142.257 74.9038 143.453 78.5094 145.145 80.7897C145.981 81.9757 146.976 83.1143 147.588 84.4418C148.183 85.7129 147.286 87.2203 146.786 88.4252C143.096 97.1588 143.307 106.777 145.293 115.887C141.307 117.612 140.111 123.007 142.71 126.403C143.604 127.604 144.695 128.05 145.932 128.788C147.498 129.648 146.219 133.092 146.72 134.756C147.401 138.816 151.106 141.317 154.77 138.68C157.094 138.329 158.969 145.079 160.657 146.773C161.697 148.138 162.852 149.364 164.107 150.495C167.848 160.1 187.014 164.971 196.491 164.415C206.414 163.378 213.109 154.967 218.683 147.503C221.546 143.526 223.407 139.074 224.084 134.219C224.765 129.339 224.467 124.451 224.007 119.566C223.041 109.185 221.518 94.231 220.534 83.7388C224.089 83.4466 227.27 80.4254 227.162 76.7546V76.7546Z" fill="#e03b3b"/>
<path fill-rule="evenodd" clip-rule="evenodd" d="M149.649 70.5138C149.645 70.5285 149.65 70.5396 149.654 70.5553C149.654 70.5508 149.655 70.5484 149.656 70.5429C149.653 70.5311 149.651 70.5233 149.649 70.5138" fill="#FFE194"/>
<path fill-rule="evenodd" clip-rule="evenodd" d="M149.648 70.6649C149.635 70.6512 149.616 70.641 149.598 70.6273C149.597 70.6277 149.597 70.6282 149.597 70.6287C149.614 70.64 149.631 70.6531 149.648 70.6649" fill="#FFE194"/>
<path fill-rule="evenodd" clip-rule="evenodd" d="M226.596 78.0958C227.764 77.1274 229.604 78.019 229.208 79.6134C228.778 81.3497 226.913 82.5362 225.374 83.2496C223.789 83.9836 222.246 84.1251 220.517 84.045L220.496 84.0403V84.0403C220.976 85.9608 221.248 87.9571 221.615 89.8892C222.081 92.3404 222.539 94.7927 222.991 97.2462C223.427 99.6178 223.98 101.992 224.315 104.376C224.654 106.782 224.979 109.189 225.311 111.596C225.866 115.615 226.314 119.653 226.786 123.684L227.011 125.592C227.484 129.631 227.865 133.674 226.968 137.693C226.128 141.46 224.236 144.973 222.041 148.117C219.892 151.196 217.49 154.156 214.855 156.834C209.77 161.999 203.5 166.136 196.149 166.903C192.983 167.233 189.602 166.866 186.626 165.717L186.429 165.64C183.416 164.453 179.727 162.421 178.943 159.086C178.462 157.04 180.574 155.443 182.426 156.413C183.285 156.863 183.93 157.377 184.634 158.022L184.759 158.137C185.335 158.67 185.556 158.835 186.221 159.252C187.583 160.107 188.604 160.512 190.152 160.901C193.005 161.617 196.084 161.504 198.981 160.657C205.13 158.858 209.901 154.165 213.988 149.46C216.207 146.905 218.313 144.224 219.938 141.246C221.642 138.122 222.429 134.841 222.382 131.286C222.328 127.275 221.773 123.248 221.408 119.255C221.037 115.185 220.694 111.117 220.391 107.041C220.108 103.218 220.08 99.3789 219.981 95.5447L219.962 94.8259C219.903 92.7905 219.863 90.7543 219.817 88.7184C219.771 86.6884 219.61 84.6326 219.819 82.6111C219.834 82.4639 220.033 82.4267 220.081 82.5756C220.205 82.9543 220.313 83.339 220.415 83.7258C220.431 83.7139 220.448 83.7032 220.47 83.6959C221.824 83.2314 223.072 82.3039 224.088 81.3038C225.058 80.3493 225.565 78.9512 226.596 78.0958ZM152.482 49.6551C153.333 46.1673 157.162 45.3882 159.994 47.0679C161.356 47.8757 162.446 49.0406 163.719 49.9663C164.984 50.8869 166.381 51.6261 167.856 52.1482C170.787 53.1854 173.878 53.5625 176.975 53.576C184.513 53.6089 191.897 51.4948 199.446 51.7306C205.287 51.9131 211.487 53.636 215.724 57.85C218.007 60.1201 219.477 63.0386 220.266 66.1371C220.635 67.5851 220.91 69.0684 221.127 70.5482L221.18 70.918C221.301 71.7829 221.496 72.6984 221.514 73.5725C221.53 74.3575 221.331 75.179 221.223 75.9559C220.996 77.5936 218.454 77.4071 218.089 75.9559C217.257 72.6517 217.605 69.2416 216.589 65.9489C215.688 63.0289 213.941 60.4758 211.41 58.7298C200.733 51.3635 187.04 57.5322 175.276 56.9591C172.401 56.819 169.483 56.3756 166.771 55.3875C165.373 54.8779 163.996 54.2565 162.728 53.4748C161.566 52.7591 160.559 51.8599 159.484 51.0324L159.009 50.6725C158.272 50.119 157.017 49.2535 156.273 49.9858C155.95 50.3045 155.93 51.0252 155.936 51.5755L155.94 51.8243C155.973 54.1607 156.451 56.4929 155.574 58.7502C155.175 59.7798 154.064 60.4289 153.008 59.8458L152.953 59.8146C150.718 58.4879 147.783 61.1537 149.499 63.3599L149.553 63.4266C150.518 64.5979 150.004 66.6607 148.275 66.6555L148.213 66.6544C145.133 66.5585 143.767 70.3997 146.421 72.078L146.503 72.1282C148.658 73.4154 146.768 76.51 144.559 75.4475C144.746 75.5376 144.42 75.5364 144.234 75.7857C144.055 76.0251 144.042 76.2323 144.085 76.5347C144.214 77.451 145.021 78.2231 145.675 78.8029C147.161 80.1199 149.003 81.0293 150.9 81.583C158.502 83.8009 166.302 81.0879 173.708 79.4494C181.43 77.7413 190.152 77.0533 196.886 81.9004C196.966 81.9577 196.896 82.0859 196.808 82.0347C191.975 79.2338 186.055 79.4824 180.773 80.6307C173.845 82.1367 166.978 84.9398 159.883 85.6783C161.875 89.1875 162.708 93.3321 162.176 97.3458C161.81 100.109 160.708 102.505 159.407 104.934L159.159 105.397C157.998 107.577 157.099 109.637 157.085 112.162C157.071 114.671 153.333 115.2 152.7 112.755C151.261 107.2 156.502 102.825 158.64 98.245C160.467 94.3296 160.523 89.7646 159.045 85.7556C157.376 85.8895 155.694 85.9035 153.996 85.7522C152.537 85.6221 151.036 85.3598 149.573 84.9445L148.988 87.3999C148.212 90.6705 147.494 93.9389 147.276 97.3359C147.116 99.8321 147.125 102.341 147.368 104.831C147.579 106.981 148.024 109.055 148.477 111.155C148.866 111.666 149.064 112.449 148.955 113.073C151.477 113.798 153.461 115.784 154.186 118.414C154.23 118.575 154.005 118.665 153.921 118.526C152.202 115.678 147.773 114.63 144.972 116.512C142.297 118.308 141.242 121.934 142.756 124.805C143.553 126.314 144.734 127.375 146.256 128.105L146.562 128.249C147.36 128.625 148.093 129.036 148.606 129.793C149.272 130.775 149.294 131.812 149.231 132.934L149.204 133.389C149.162 134.141 149.152 134.915 149.377 135.638L149.428 135.799C149.487 135.979 149.549 136.138 149.657 136.311C149.69 136.362 149.993 136.659 150.092 136.766L150.216 136.803V136.803L150.355 136.809V136.809C150.51 136.812 150.712 136.745 150.646 136.791L150.664 136.781C150.723 136.744 150.776 136.706 150.822 136.672L150.908 136.604C151.11 136.314 151.362 136.073 151.672 135.89L151.968 135.759V135.759C152.738 134.948 154.056 135.374 154.607 136.181C155.004 136.762 155.217 137.352 155.235 137.935C155.297 137.835 155.435 137.781 155.522 137.892L156.045 138.557C158.046 141.108 160.012 143.675 162.285 146C163.537 147.281 164.884 148.485 166.292 149.594C167.494 150.541 169.775 151.452 169.81 153.177C169.821 153.737 169.422 154.133 168.935 154.324C167.349 154.942 165.389 152.839 164.243 151.815L164.15 151.733C162.748 150.507 161.468 149.162 160.287 147.723C157.994 144.928 156.076 141.712 155.231 138.174C155.191 138.791 154.926 139.396 154.409 139.967C153.721 140.727 152.779 141.26 151.774 141.479C149.495 141.976 147.27 141.158 145.914 139.263C144.768 137.661 144.431 135.546 144.579 133.61L144.597 133.378C144.618 133.068 144.644 132.498 144.725 132.256L144.007 131.863V131.863C143.128 131.395 142.312 130.783 141.581 130.11C138.64 127.404 137.164 123.007 138.509 119.159C139.35 116.752 141.117 114.658 143.38 113.569C143.001 112.697 142.875 111.661 142.732 110.744L142.708 110.593C142.466 109.089 142.264 107.566 142.186 106.045C142.042 103.203 142.218 100.335 142.665 97.526C143.392 92.9637 144.896 88.1254 147.654 84.2982C145.55 83.4644 143.614 82.2573 142.119 80.5812C140.557 78.8297 139.561 76.3221 140.769 74.0977C141.077 73.5308 141.478 73.0542 141.939 72.6757C141.139 71.1693 140.881 69.3888 141.374 67.6871C141.963 65.6526 143.564 64.0658 145.497 63.3249C145.028 61.3973 145.412 59.324 146.846 57.7175C148.269 56.1239 150.479 55.5434 152.524 55.9077C152.635 53.8576 151.989 51.6771 152.482 49.6551ZM146.746 121.635C148.621 120.719 150.844 120.865 152.717 121.733L152.844 121.793C154.889 122.782 157.597 125.095 156.947 127.554C156.567 128.992 154.966 129.483 153.724 128.862C152.687 128.344 152.45 127.416 151.93 126.484C151.562 125.826 151.107 125.311 150.573 124.781C149.447 123.665 148.183 122.836 146.746 122.172C146.539 122.077 146.546 121.733 146.746 121.635ZM193.995 71.927C193.819 71.8469 193.947 71.5722 194.124 71.6225C198.836 72.9654 203.229 75.9797 205.854 80.1636C206.014 80.4189 206.039 80.8391 205.854 81.0917L205.769 81.2064C205.649 81.3632 205.53 81.479 205.304 81.5141C204.878 81.58 204.508 81.4693 204.263 81.0917C201.677 77.1038 198.364 73.9212 193.995 71.927ZM225.539 72.7167C225.938 72.042 226.997 72.1778 227.208 72.9343L227.238 73.0002C227.352 73.2581 227.3 73.3109 227.088 73.1649C227.613 73.5968 227.851 74.24 227.69 74.9316C226.823 78.6669 222.584 81.3342 218.888 80.9671C218.565 80.9351 218.521 80.5395 218.814 80.4215C220.236 79.8469 221.498 78.9138 222.512 77.7688C223.499 76.6558 223.914 75.3824 224.444 74.0383C224.643 73.5337 224.953 73.1704 225.389 72.972C225.447 72.8924 225.497 72.8075 225.539 72.7167ZM204.522 70.3164L204.548 70.318C206.447 70.5629 208.089 71.4981 209.423 72.8685C210.707 74.1882 212.328 76.3658 212.189 78.3024C212.097 79.5863 210.268 80.3203 209.586 79.0064C209.178 78.2223 209.086 77.3629 208.801 76.5339C208.539 75.774 208.178 75.0526 207.745 74.3759C206.854 72.9818 205.629 71.8008 204.375 70.7352C204.228 70.6105 204.33 70.3171 204.522 70.3164V70.3164ZM155.817 69.7474C155.395 69.3474 155.833 68.6653 156.369 68.8003C159.193 69.514 161.991 70.3819 164.927 70.4682C166.394 70.5111 167.852 70.3957 169.305 70.2063L170.041 70.1088C171.174 69.9612 172.326 69.8453 173.446 70.0776C174.193 70.2324 174.339 71.1922 173.874 71.6931C171.677 74.0582 167.439 73.8321 164.525 73.4334C161.361 73.0002 158.168 71.9834 155.817 69.7474ZM206.822 62.3753C206.628 62.1078 206.954 61.6854 207.261 61.8041C210.068 62.8868 213.01 65.7056 213.783 68.6547C213.988 69.4337 213.003 70.022 212.425 69.4437C211.348 68.366 210.587 67.093 209.677 65.8817C208.769 64.6741 207.708 63.6016 206.822 62.3753ZM160.831 63.6924C160.605 63.468 160.832 63.021 161.155 63.1352C162.983 63.7811 164.824 64.34 166.744 64.6331C168.71 64.9332 170.695 64.7052 172.672 64.8268C173.472 64.8758 174.016 66.1173 173.127 66.5036C169.177 68.2198 163.812 66.6636 160.831 63.6924ZM165.878 59.843C165.564 59.6112 165.742 58.9751 166.169 59.1526C167.91 59.8757 169.67 60.0535 171.537 59.9791C172.227 59.9514 172.372 61.0333 171.7 61.1793C169.636 61.6275 167.565 61.0878 165.878 59.843Z" fill="#FFE194"/>
<path fill-rule="evenodd" clip-rule="evenodd" d="M197.519 143.848C195.923 143.198 194.498 142.114 193.457 140.729C193.095 140.247 193.001 139.739 193.077 139.274C193.162 138.751 193.472 138.277 193.895 137.959C194.319 137.64 194.849 137.483 195.362 137.563C195.808 137.633 196.251 137.876 196.602 138.381L196.676 138.482C197.295 139.318 198.102 140.004 199.021 140.446C199.907 140.872 200.898 141.071 201.923 140.955C203.877 140.735 205.223 139.681 206.653 138.25C206.831 138.069 207.008 137.882 207.187 137.693C207.299 137.521 207.456 137.411 207.629 137.353C207.822 137.289 208.04 137.292 208.239 137.362C208.432 137.429 208.604 137.556 208.719 137.725C208.829 137.886 208.891 138.085 208.871 138.313C208.74 139.796 207.963 141.12 206.859 142.16C205.633 143.315 204.008 144.113 202.478 144.393C200.792 144.702 199.074 144.481 197.519 143.848V143.848ZM203.273 120.962C205.067 122.05 207.799 124.587 205.87 127.284C203.599 129.662 200.329 126.935 198.718 125.702C197.224 124.746 195.546 127.204 196.932 128.32C208.574 136.923 213.299 121.247 204.18 119.683C203.176 119.511 202.803 120.626 203.273 120.962ZM182.409 110.955C182.607 108.501 186.353 107.944 186.726 110.372C187.06 112.548 186.667 114.547 185.685 116.506C184.746 118.377 182.388 117.504 182.21 115.8C181.971 113.516 182.286 112.482 182.409 110.955ZM210.924 109.869C211.446 109.186 212.2 108.72 213.103 108.984C215.926 109.807 215.094 113.806 214.103 115.752C213.564 116.809 211.823 117.077 211.036 116.147C209.754 114.629 209.14 111.598 210.77 110.103C210.814 110.025 210.863 109.947 210.924 109.869ZM185.645 100.215L186.091 100.137C187.47 99.8992 189.185 99.6704 190.161 100.777C190.678 101.364 190.857 102.455 190.161 103.016C188.937 104.005 187.585 103.622 186.118 103.705C184.91 103.775 183.749 103.974 182.585 104.306C180.031 105.034 177.951 106.364 175.77 107.824C175.484 108.016 175.192 107.65 175.328 107.383C176.587 104.922 179.027 102.901 181.471 101.669C182.775 101.011 184.202 100.465 185.645 100.215ZM208.35 99.1128L208.692 99.1825C212.405 99.9572 217.23 101.505 218.989 105.145C219.056 105.66 218.985 105.77 218.928 105.842L218.908 105.866C218.861 105.928 218.823 106.013 218.6 106.083C218.538 106.068 218.475 106.052 218.412 106.036C217.605 105.825 216.968 105.534 216.35 105.233L215.681 104.904C214.904 104.524 214.12 104.158 213.29 103.887C211.518 103.31 209.695 102.904 207.844 102.687C207.443 102.64 207.056 102.505 206.752 102.273C206.462 102.053 206.241 101.749 206.14 101.344C206.01 100.821 206.047 100.425 206.329 99.9522C206.541 99.5975 206.843 99.3516 207.191 99.2104C207.546 99.0665 207.949 99.0326 208.35 99.1128Z" fill="#FFE194"/>
<path fill-rule="evenodd" clip-rule="evenodd" d="M182.116 145.333C184.039 140.838 188.235 137.534 193.067 136.326C196.615 135.441 200.339 135.469 203.956 135.82C205.851 136.003 207.883 136.153 209.669 136.855C211.194 137.455 212.437 138.589 213.371 139.921C214.484 141.498 215.24 143.304 215.772 145.154C215.847 145.417 215.918 145.682 215.984 145.949C215.753 147.345 215.263 148.534 213.967 149.412C212.702 150.269 211.193 150.619 209.689 150.744C209.541 150.673 209.399 150.601 209.268 150.526C206.924 149.187 205.274 146.022 202.316 146.451C199.676 146.833 197.938 150.148 196.368 152.093C191.328 152.679 186.291 151.167 182.191 148.291C181.983 147.307 181.97 146.314 182.116 145.333M219.409 141.923C219.006 140.794 218.498 139.7 217.896 138.67C215.907 135.263 212.852 132.548 209.225 130.997C200.647 127.331 189.547 129.915 182.619 135.927C180.253 137.982 177.86 141.002 177.136 144.251C176.92 144.294 176.716 144.406 176.548 144.564C171.543 141.419 166.388 138.393 162.355 134.034C159.426 130.866 157.389 127.118 156.141 122.999C156.039 122.66 155.491 122.709 155.508 123.084C155.512 123.172 155.517 123.26 155.522 123.347C155.47 123.186 155.223 123.269 155.204 123.426C154.533 128.43 153.693 133.735 154.467 138.765C154.929 141.766 156.295 143.963 158.121 146.336C160.078 148.879 162.293 151.245 164.558 153.513C165.996 154.953 167.497 156.614 169.257 157.67C171.304 158.897 173.625 159.829 175.81 160.776C178.032 161.741 180.288 162.633 182.586 163.407C187.18 164.959 191.928 166.031 196.759 166.501C200.628 166.876 205.049 167.284 208.756 165.832C211.597 164.719 213.891 162.707 215.71 160.287C217.69 157.651 219.256 154.648 220.121 151.482C221.021 148.193 219.599 142.453 219.409 141.923" fill="#FFE194"/>
</svg>
